<?xml version="1.0" encoding="UTF-8"?>
<!-- Generator: Adobe Illustrator 17.0.0, SVG Export Plug-In . SVG Version: 6.00 Build 0)  -->
<svg width="500px" height="500px" enable-background="new 0 0 500 500" version="1.1" viewBox="0 0 500 500" xml:space="preserve" xmlns="http://www.w3.org/2000/svg" xmlns:cc="http://creativecommons.org/ns#" xmlns:dc="http://purl.org/dc/elements/1.1/" xmlns:rdf="http://www.w3.org/1999/02/22-rdf-syntax-ns#"><metadata><rdf:RDF><cc:Work rdf:about=""><dc:format>image/svg+xml</dc:format><dc:type rdf:resource="http://purl.org/dc/dcmitype/StillImage"/><dc:title/></cc:Work></rdf:RDF></metadata><defs><filter id="filter3935" color-interpolation-filters="sRGB"><feBlend in2="BackgroundImage" mode="hard-light"/></filter></defs><g display="none"><g display="inline" fill="#444"><path d="m256.71 200.87c-11.473 0-22.028 7.544-29.581 21.728-7.24 13.579-12.069 31.391-12.069 45.27 0 15.994 6.039 24.443 17.503 24.443 11.164-4e-3 21.732-8.754 29.581-24.147 7.24-14.184 12.065-32.583 12.065-46.476 0-12.369-6.939-20.818-17.499-20.818z"/><path d="m23.5 24.857v448h448v-448h-448zm329.49 274.7c-15.693 15.689-36.216 24.739-56.444 24.739-11.769 0-21.419-4.529-25.953-11.769-1.514-2.415-1.805-3.924-2.71-9.359-11.473 13.279-23.542 19.013-40.441 19.013-29.877 0-48.89-22.333-48.89-56.739 0-51.005 33.501-93.256 73.642-93.256 16.894 0 25.348 4.225 33.506 16.903l3.02-10.564h35.594c-1.801 6.039-7.244 24.447-8.749 31.082l-18.113 67.003c-0.9 3.315-1.21 6.335-1.21 9.054 0 4.829 2.71 7.549 7.849 7.549 5.73 0 12.974-3.02 19.013-7.849 14.788-11.469 24.443-33.802 24.443-57.03 0-27.763-12.974-51.91-34.707-65.489-13.579-8.145-32.592-12.678-54.024-12.678-63.679 0-108.35 42.255-108.35 102.01 0 57.949 40.136 95.971 100.8 95.971 15.693 0 32.292-2.41 46.184-6.626 11.769-3.633 19.318-7.244 33.802-15.994l18.399 26.557c-16.298 9.659-23.542 13.283-37.726 17.503-20.518 6.33-42.246 9.645-63.974 9.645-42.556 0-75.752-12.065-99.595-35.916-22.633-22.333-35.007-54.324-35.007-89.331 0-37.426 12.678-69.718 36.821-94.165 27.767-27.763 64.288-41.346 111.06-41.346 70.323 0 120.43 45.266 120.43 108.34 0 28.373-10.264 54.325-28.668 72.734z"/></g></g><g display="none"><path d="m360.74 301.75c0 8.412-6.927 15.339-15.339 15.339s-15.339-6.927-15.339-15.339 6.927-15.339 15.339-15.339 15.339 6.927 15.339 15.339zm108.36-55.419c0 122.71-99.458 222.17-222.17 222.17s-222.17-99.458-222.17-222.17 99.458-222.17 222.17-222.17 222.17 99.458 222.17 222.17zm-68.779 38.595c0-5.938-4.453-10.886-10.391-11.381v-29.194c0-10.886-8.907-19.793-19.793-19.793l-26.72-2.474-23.751-35.627c-0.495-0.495-0.495-0.99-0.99-0.99-3.464-4.948-9.401-8.412-16.329-8.412h-144.48c-9.896 0-18.308 7.422-19.793 17.318h-63.336c-4.453 0-7.917 3.464-7.917 7.917s3.464 7.917 7.917 7.917h72.738 0.99c3.959 0.495 6.927 3.959 6.927 7.917 0 4.453-3.464 7.917-7.917 7.917h-52.945c-4.453 0-7.917 3.464-7.917 7.917s3.464 7.917 7.917 7.917h79.171c4.453 0 7.917 3.464 7.917 7.917s-3.464 7.917-7.917 7.917h-56.409c-4.453 0-7.917 3.464-7.917 7.917s3.464 7.917 7.917 7.917h20.782c-4.948 1.484-8.412 5.938-8.412 10.886v14.35c0 6.433 4.948 11.381 11.381 11.381h16.329c3.464 12.865 15.339 22.267 29.194 22.267s25.73-9.401 29.194-22.267h99.952c3.464 12.865 15.339 22.267 29.194 22.267s25.73-9.401 29.194-22.267h13.855c6.433 0 11.381-4.948 11.381-11.381v-13.855h0.989zm-213.26 1.485c-8.412 0-15.339 6.927-15.339 15.339s6.927 15.339 15.339 15.339 15.339-6.927 15.339-15.339-6.927-15.339-15.339-15.339z" display="inline" fill="#444"/></g><g display="none"><path d="m305.34 464.45c118.69-31.803 189.87-154.28 158.07-272.97-31.803-118.69-154.84-189.72-273.52-157.92s-189.72 154.84-157.92 273.52c12.349 46.088 38.41 84.416 72.652 112.65 0.093 0.462 0.2 0.631 0.295 1.101l-27.365 40.952 158.55 10.6-70.119-142.82-24.398 36.618c-21.796-19.592-38.667-45.25-46.882-75.911-22.742-84.874 27.119-171.24 111.99-193.98s171.24 27.119 193.98 111.99c22.439 83.744-25.875 168.99-108.69 193.09l7.16 64.141c2.045-0.487 4.156-0.524 6.2-1.072z" display="inline" fill="#444"/><path d="m308.28 203.3h-53.336v-8.845c0-9.417-0.616-15.578-1.848-18.483-1.232-2.904-3.873-4.356-7.921-4.357-3.257 0-5.699 1.254-7.327 3.763s-2.442 6.271-2.442 11.288c0 8.361 1.672 14.214 5.017 17.559 3.256 3.345 12.85 9.858 28.78 19.539 13.554 8.185 22.795 14.456 27.724 18.813s9.087 10.518 12.476 18.483c3.388 7.965 5.083 17.889 5.083 29.77 0 19.011-4.577 33.929-13.73 44.755s-22.883 17.515-41.19 20.067v20.067h-24.556v-20.727c-14.258-1.408-26.712-6.887-37.361-16.436-10.65-9.549-15.974-26.206-15.974-49.969v-10.43h53.336v13.07c0 14.346 0.55 23.257 1.65 26.734s3.762 5.215 7.987 5.215c3.608 0 6.293-1.21 8.053-3.631 1.76-2.42 2.64-6.007 2.64-10.76 0-11.97-0.836-20.529-2.508-25.678s-7.393-10.759-17.162-16.832c-16.282-10.209-27.35-17.712-33.203-22.509s-10.914-11.552-15.182-20.265c-4.269-8.713-6.403-18.571-6.403-29.572 0-15.93 4.511-28.428 13.532-37.493s22.553-14.654 40.596-16.766v-17.03h24.556v17.03c16.458 2.113 28.78 7.635 36.965 16.568s12.278 21.277 12.278 37.031c-2e-3 2.198-0.178 5.543-0.53 10.031z" display="inline" fill="#409A9E"/></g><g display="none"><path d="m179.89 40.823h-58.818c-5.837 0-10.858 3.116-13.413 8.366-8.665 17.5-26.507 63.044-27.494 141.61-1.115 92.763 92.112 229.61 180.87 252.22 76.169 19.405 124.79 13.936 143.91 10.148 5.736-1.147 10.164-5.149 11.583-10.836l12.853-53.243c1.707-7.053-1.377-14.187-7.902-17.372l-85.192-41.473c-7.022-3.399-15.452-0.891-19.453 5.784-12.821 21.454-41.889 29.809-71.864 8.302-28.278-22.9-61.603-81.665-75.839-113.66-16.503-36.681 4.759-67.483 28.406-76.111 6.952-2.545 10.628-9.593 9.572-16.924l-12.463-84.684c-1.046-7.144-7.475-12.133-14.763-12.133z" display="inline" fill="#444"/></g><g display="none"><path d="m366.96 161.98c0-87.019-73.271-119.45-119.46-119.45s-119.46 32.431-119.46 119.45v80.827h-24.884v207.84h288.67v-207.84h-24.884v-80.827h5e-3zm-101.28 221.3h-36.347l5.938-44.521c-6.293-4.039-10.482-11.054-10.482-19.087 0-12.544 10.173-22.717 22.717-22.717s22.717 10.173 22.717 22.717c0 8.033-4.189 15.048-10.482 19.087l5.939 44.521zm61.463-140.48h-159.27v-80.827c0-77.469 78.837-79.632 79.632-79.632s79.632 2.167 79.632 79.632v80.827h5e-3z" display="inline" fill="#444"/></g><g display="none" fill="#444"><path d="m408.98 176.25c7.904-10.673 12.747-23.756 12.747-38.066 0-35.441-28.747-64.197-64.201-64.197-10.735 0-20.704 2.881-29.594 7.55-11.864-32.461-42.928-55.684-79.489-55.684-36.565 0-67.633 23.222-79.489 55.684-8.889-4.651-18.854-7.55-29.594-7.55-35.454 0-64.197 28.756-64.197 64.197 0 15.857 5.964 30.167 15.476 41.369-21.847 16.78-35.978 43.098-35.978 72.768 0 49.976 39.957 90.56 89.677 91.725-29.854-27.721-34.401-71.28-34.598-73.341l-1.151-11.999 11.64-3.163c0.654-0.179 16.215-4.342 36.436-4.342 20.794 0 38.945 4.243 54.044 12.613 8.974-28.066 30.329-47.785 31.462-48.82l9.624-8.759 9.624 8.759c1.143 1.035 22.483 20.754 31.458 48.815 15.09-8.37 33.227-12.608 53.999-12.608 20.203 0 35.75 4.167 36.4 4.346l12.572 3.423-2.24 12.837c-0.354 2.025-8.199 44.908-38.246 72.248 0.721 0.018 1.429 0.099 2.164 0.099 50.719 0 91.833-41.127 91.833-91.833-1e-3 -31.651-16.009-59.56-40.379-76.071z" display="inline"/><path d="m296.03 278.56c-5.153 3.28-9.673 7.196-13.746 11.394 0.027-0.672 0.215-1.29 0.215-1.967 0-34.46-30.709-62.413-30.709-62.413s-30.714 27.954-30.714 62.413c0 0.677 0.188 1.295 0.215 1.967-4.077-4.198-8.594-8.114-13.76-11.394-35.136-22.371-83.557-9.221-83.557-9.221s5.309 49.447 40.459 71.845c25.001 15.919 56.208 13.845 69.65 11.331v110.21c0 5.91 7.532 10.704 13.442 10.704 5.919 0 13.442-4.79 13.442-10.704v-110.39c13.442 2.581 48.873 5.135 74.466-11.148 35.15-22.398 43.936-71.845 43.936-71.845s-48.189-13.154-83.339 9.217z" display="inline"/></g><g display="none"><g display="inline"><path d="m172.21 335.65c2.765-0.178 5.596-0.298 8.568-0.298h24.702c-24.536-9.319-44.657-24.872-61.516-45.445 0.145-0.315 0.29-0.638 0.435-0.953h9.004c11.785 0 23.574 8e-3 35.359-8e-3 1.492-8e-3 2.744-0.05 3.486 1.774 6.645 16.258 15.947 30.887 26.696 44.641h20.258c-12.9-13.572-22.886-28.992-30.982-46.179h40.168v46.179h10.749c0.854-0.129 1.72-8e-3 2.612-8e-3 0.734 0 1.455 0.058 2.164 0.141v-46.311h40.172c-8.51 18.19-19.209 34.369-33.299 48.633 5.215 3.068 8.722 8.705 8.722 15.28 0 1.87-0.286 3.673-0.812 5.36 76.775-11.068 135-77.716 134.1-156.82-0.966-84.693-69.977-154.79-156.75-154.74-87.553 0.05-157.67 71.859-156.5 158.75 0.724 54.218 29.352 102.41 72.666 130.01zm93.489-62.121c-0.502 0-1.003-0.087-1.737-0.17v-62.018h58.449c-0.626 6.964-1.011 13.713-1.886 20.395-1.749 13.464-4.979 26.6-9.277 39.467-0.51 1.521-1.078 2.404-2.989 2.388-14.185-0.095-28.371-0.054-42.56-0.062zm-1.662-77.878v-62.014c0.817-0.075 1.621-0.216 2.413-0.216 13.767-0.012 27.537 0 41.308-0.021 1.501-4e-3 2.719-0.017 3.345 1.865 6.363 19.197 10.438 38.812 10.985 59.083 8e-3 0.303-0.087 0.609-0.211 1.302-19.314 1e-3 -38.461 1e-3 -57.84 1e-3zm25.054 145.21c1.248-1.604 2.015-2.624 2.823-3.627 11.321-14.135 20.967-29.299 28.113-46.005 0.415-0.97 1.799-2.168 2.736-2.176 14.703-0.137 29.415-0.087 44.123-0.083 0.386 0 0.779 0.149 1.89 0.373-21.054 25.863-46.705 43.534-79.685 51.518zm105.14-107.13c-2.715 13.145-7.727 25.494-13.995 37.345-0.759 1.434-1.385 2.524-3.407 2.508-15.976-0.112-31.931-0.087-47.907-0.104-0.601 0-1.19-0.112-2.176-0.22 6.45-20.25 10.106-40.777 10.857-61.943h60.148c-1.186 7.686-2.011 15.122-3.52 22.414zm-14.537-98.637c9.654 17.684 15.835 36.466 17.361 56.654 0.087 1.223 8e-3 2.458 8e-3 3.876h-59.452c-0.759-21.162-4.419-41.702-10.881-61.993 1.322-0.079 2.226-0.174 3.134-0.174 15.458-0.021 30.895-0.075 46.349 0.021 1.188 7e-3 2.979 0.691 3.481 1.616zm-11.325-18.095c-0.129 0.332-0.257 0.663-0.394 0.995h-3.669c-13.559 0-27.119-4e-3 -40.674 4e-3 -1.467 0-2.769 0.116-3.523-1.724-7.283-17.817-17.721-33.705-29.801-48.587-0.257-0.315-0.448-0.684-0.995-1.521 32.728 7.813 58.313 25.593 79.056 50.833zm-104.43-53.76c9.824 4.983 36.317 41.287 39.72 54.54h-39.72v-54.54zm-81.003 210.24c-15.653 0.025-31.309 0.075-46.966-0.025-1.169-8e-3 -2.889-0.808-3.407-1.766-9.435-17.319-15.495-35.708-17.207-55.431-0.099-1.144-0.112-2.292-0.133-3.441-8e-3 -0.415 0.075-0.825 0.133-1.467h59.402c0.746 21.17 4.394 41.623 10.84 61.864-1.108 0.121-1.887 0.266-2.662 0.266zm65.45-0.215c-0.792 0.087-1.583 0.257-2.371 0.257-13.874 0.017-27.74-8e-3 -41.615 0.041-1.642 8e-3 -2.636-0.29-3.217-2.064-6.214-18.799-10.214-38.004-10.898-57.844-0.025-0.705 0.079-1.422 0.133-2.326h57.968v61.936zm-0.013-77.609h-58.275c0.365-5.294 0.539-10.454 1.115-15.57 1.666-14.956 4.966-29.56 9.729-43.841 0.688-2.06 1.53-2.927 3.872-2.906 13.559 0.133 27.114 0.062 40.674 0.07 0.92 0 1.824 0.104 2.893 0.17-8e-3 20.691-8e-3 41.197-8e-3 62.077zm-0.07-132.71v54.842h-39.596c3.155-12.652 26.464-44.952 39.596-54.842zm-25.349 3.212c-4.514 6.131-8.759 11.665-12.759 17.377-7.072 10.102-13.049 20.83-17.775 32.23-0.647 1.554-1.38 2.272-3.163 2.259-14.392-0.066-28.785-0.033-43.182-0.046-0.597 0-1.19-0.124-2.599-0.282 21.15-25.953 46.801-43.633 79.478-51.538zm-106.88 118.08c2.334-17.24 8.05-33.378 16.25-48.662 0.497-0.924 1.724-2.064 2.62-2.073 16.689-0.124 33.382-0.087 50.705-0.087-6.438 20.457-10.189 41.034-10.906 62.242h-59.663c0.335-3.876 0.488-7.673 0.994-11.42z" fill="#444"/></g><g display="inline"><path d="m332.12 344.12c-10.89 5.903-22.546 10.566-34.804 13.829-5.198 5.803-10.015 11.474-12.884 15.553h21.481l26.207-29.382z" fill="#444"/><path d="m405.34 344.55c0-7.893-6.342-14.297-14.16-14.297-4.025 0-7.644 1.7-10.226 4.419h-8e-3l-0.323 0.323c-2.359 1.621-3.797 3.354-3.797 3.354l-23.359 23.748-16.324 16.299-132.89 0.099c-19.002 0-9.7-6.525-9.7-6.525s60.177 0 67.253 0c1.53 0 2.864-0.373 4.058-1.003 6.471-2.338 11.109-8.564 11.109-15.91 0-9.343-7.503-16.718-16.743-16.718-0.833 0-1.65-0.112-2.458 8e-3h-73.84c-61.939 0-74.325 42.464-74.325 42.464l-44.243 65.483h107.84c8.025-24.022 28.424-26.248 28.424-26.248h111.49c21.68 0 35.397-10.915 35.397-10.915l4.493-4.655 48.032-49.623-0.025-0.033c1.111-1.078 2.031-2.338 2.744-3.731 1.293-2.243 1.679-4.162 1.538-5.783 0.02-0.246 0.041-0.499 0.041-0.756z" fill="#444"/><path d="m334.17 373.31l30.485-31.301-0.017-0.017c1.521-1.488 2.475-3.569 2.475-5.878 4e-3 -4.523-3.623-8.191-8.092-8.191-2.305 0-4.377 0.966-5.845 2.529l-8e-3 -8e-3s-33.171 31.347-41.217 42.883l22.219-0.017z" fill="#444"/></g></g><g display="none"><g display="inline" fill="#444"><polygon points="314.45 296.49 307.35 303.59 293.45 317.42 286.49 324.37 293.45 331.33 307.35 345.3 412.05 450 440 422.05"/><path d="m293.45 290.96c5.105-5.887 9.788-12.13 13.902-18.798 13.264-21.353 20.923-46.533 20.923-73.491 0-27.027-7.664-52.212-20.923-73.56-4.114-6.669-8.797-12.912-13.902-18.798-25.611-29.013-63.064-47.316-104.78-47.316-77.11 0-139.67 62.564-139.67 139.67s62.564 139.6 139.67 139.6c41.711 0 79.164-18.303 104.78-47.311zm-104.78 19.363c-61.717 0-111.73-50.009-111.73-111.65 0-61.717 50.009-111.73 111.73-111.73 48.023 0 88.953 30.289 104.78 72.852 4.466 12.06 6.951 25.18 6.951 38.874 0 13.62-2.481 26.744-6.951 38.805-15.823 42.558-56.752 72.847-104.78 72.847z"/></g></g><g display="none"><path d="m244.99 459.36c-78.171 0-141.78-63.6-141.78-141.78 0-104.2 71.789-201.82 114.58-250.75 5.338-6.096 10.235-11.472 14.525-16.049l12.773-12.428 12.958 12.866c4.109 4.395 8.858 9.599 14.259 15.766 15.059 17.29 37.275 44.799 57.652 77.721 36.816 59.483 55.909 116.45 56.759 169.33l0.063 3.351c0 17.939-3.259 35.28-9.67 51.728-21.416 54.829-73.279 90.239-132.12 90.239zm-9e-3 -391.4c-3.347 3.629-7.233 7.927-11.392 12.685-40.854 46.71-109.39 139.59-109.39 236.94 0 66.606 54.191 120.79 120.79 120.79 50.145 0 94.333-30.177 112.58-76.891 5.46-14.002 8.235-28.775 8.235-43.906l-0.063-3.187c-0.792-49.068-18.831-102.43-53.627-158.64-19.627-31.727-41.077-58.279-55.61-74.967-4.315-4.932-8.205-9.234-11.523-12.821z" display="inline" fill="#444"/><path d="m187.69 311.55" display="inline"/><path d="m350.03 315.94c0 13.144-2.396 26.001-7.149 38.176-15.876 40.605-54.288 66.851-97.891 66.851-57.896 0-105.02-47.106-105.02-105.03 0 0 42.1-19.69 105.04 0 62.935 19.686 105.02 0 105.02 0z" display="inline" fill="#444"/></g><g display="none"><g display="inline" fill="#444"><path d="m354.48 373.85c-63.708 55.566-158.38 53.878-220.2-3.97-56.588-52.945-68.031-136.71-30.121-202.09l3.537 15.081c0.967 4.122 4.636 6.903 8.697 6.903 0.675 0 1.365-0.081 2.046-0.237 4.807-1.129 7.79-5.935 6.661-10.742l-8.263-35.23c-0.03-0.141-0.101-0.262-0.136-0.403-0.091-0.307-0.191-0.605-0.312-0.902-0.106-0.257-0.212-0.504-0.338-0.741-0.141-0.277-0.297-0.539-0.469-0.796-0.146-0.227-0.307-0.448-0.474-0.66-0.191-0.242-0.403-0.474-0.625-0.695-0.191-0.197-0.388-0.378-0.595-0.554-0.126-0.106-0.232-0.237-0.368-0.338-0.126-0.101-0.267-0.156-0.398-0.247-0.217-0.141-0.433-0.272-0.66-0.398-0.292-0.166-0.59-0.317-0.892-0.438-0.222-0.096-0.448-0.171-0.675-0.247-0.317-0.106-0.635-0.197-0.962-0.267-0.242-0.045-0.494-0.081-0.741-0.106-0.322-0.04-0.64-0.066-0.962-0.071-0.257 0-0.514 0.015-0.776 0.035-0.328 0.025-0.65 0.06-0.972 0.121-0.126 0.02-0.247 0.02-0.373 0.05l-35.23 8.248c-4.807 1.124-7.79 5.93-6.666 10.737s5.935 7.775 10.737 6.666l13.418-3.139c-41.649 72.415-28.871 164.96 33.708 223.53 35.129 32.857 79.816 49.378 124.55 49.378 42.556 0 85.167-14.955 119.61-45.005 3.713-3.24 4.096-8.893 0.857-12.607-3.244-3.727-8.893-4.11-12.616-0.865z"/><path d="m246.64 373.92c3.29 0 5.961-2.665 5.961-5.961v-36.651c33.985-12.491 54.467-32.015 60.811-58.11 15.499-63.688-59.284-142.47-62.468-145.79-0.02-0.015-0.035-0.02-0.055-0.035-0.025-0.03-0.06-0.055-0.091-0.086-0.015-0.015-0.015-0.03-0.03-0.045-0.191-0.181-0.433-0.252-0.64-0.408-0.212-0.151-0.423-0.307-0.65-0.433-0.181-0.101-0.322-0.267-0.509-0.338-0.035-0.015-0.076-0.015-0.116-0.03-0.327-0.131-0.685-0.146-1.028-0.217-0.378-0.081-0.746-0.212-1.129-0.217-0.02 0-0.035-0.01-0.055-0.01s-0.04 0.01-0.066 0.01c-0.333 5e-3 -0.655 0.131-0.988 0.191-0.398 0.071-0.791 0.091-1.169 0.242-0.035 0.015-0.081 0.015-0.116 0.03-0.156 0.066-0.272 0.207-0.423 0.287-0.242 0.126-0.448 0.292-0.67 0.448-0.227 0.161-0.494 0.247-0.7 0.443-0.015 0.015-0.02 0.035-0.035 0.05-0.025 0.03-0.055 0.055-0.086 0.086-0.015 0.015-0.035 0.02-0.05 0.035-3.189 3.32-77.972 82.099-62.479 145.79 6.354 26.1 26.836 45.624 60.816 58.11v36.651c9e-3 3.292 2.675 5.958 5.965 5.958zm55.193-103.54c-5.099 20.956-21.736 37.059-49.232 48.098v-22.26l31.945-31.945c2.328-2.328 2.328-6.097 0-8.43-2.328-2.328-6.097-2.328-8.425 0l-23.52 23.52v-45.76l18.209-18.22c2.328-2.328 2.328-6.097 0-8.425s-6.097-2.328-8.425 0l-9.785 9.79v-69.366c19.681 23.722 59.95 78.97 49.233 123zm-110.39 0.015c-10.712-43.977 29.546-99.265 49.232-123.01v57.586l-9.785-9.785c-2.328-2.328-6.097-2.328-8.425 0s-2.328 6.097 0 8.425l18.209 18.209v45.766l-23.515-23.515c-2.328-2.328-6.097-2.328-8.425 0s-2.328 6.097 0 8.425l31.94 31.94v34.041c-27.489-11.031-44.127-27.135-49.231-48.085z"/><path d="m430.79 341.35c-1.134-4.807-5.93-7.77-10.742-6.666l-13.947 3.265c39.84-71.986 26.483-163.6-35.033-221.14-67.033-62.73-170.67-65.738-241.07-7.009-3.789 3.159-4.303 8.797-1.139 12.586s8.802 4.303 12.591 1.139c63.481-52.956 156.94-50.235 217.41 6.339 55.319 51.751 67.346 134 31.794 198.84l-3.366-14.345c-1.124-4.802-5.925-7.805-10.742-6.656-4.807 1.129-7.785 5.935-6.656 10.742l8.268 35.23c0.02 0.081 0.081 0.146 0.096 0.227 0.237 0.872 0.569 1.723 1.068 2.499 0.055 0.096 0.131 0.171 0.197 0.267 0.453 0.655 0.998 1.26 1.643 1.794 0.106 0.091 0.186 0.181 0.292 0.262 0.06 0.045 0.106 0.096 0.151 0.136 0.438 0.312 0.932 0.484 1.406 0.715 0.338 0.161 0.65 0.388 1.008 0.514 0.927 0.312 1.879 0.484 2.832 0.484 0.675 0 1.355-0.076 2.041-0.232l35.225-8.248c4.805-1.128 7.788-5.935 6.669-10.737z"/></g></g><g><circle cx="250" cy="250" r="222.65" fill="#800000" stroke="#fff" stroke-width="20"/></g><g transform="matrix(.90713 0 0 .90713 20.158 27.226)"><path d="m342.24 419.05c-49.269 22.557-85.207 9.079-126.82-6.53l-7.213-2.696c-43.856-16.306-75.679-30.183-75.993-30.313-18.459-6.855-28.037-27.924-21.003-46.823 3.394-9.136 10.121-16.386 18.943-20.425s18.708-4.39 27.84-0.994l32.014 12.66-95.248-159.88c-0.122-0.203-0.234-0.416-0.334-0.634-7.91-17.277-1.709-35.882 14.428-43.27 9.518-4.358 27.622-7.973 41.896 16.798 4.034 6.996 19.737 29.73 35.416 52.103l-35.608-83.292c-7.192-15.709-0.677-33.724 14.903-40.857 15.297-7.004 32.969-0.062 40.232 15.8l40.351 93.128-11.291-64.416c-4.782-18.142-10.765-41.34 4.337-48.254 6.992-3.201 17.391-5.2352 24.078-2.2692 7.933 3.52 16.898 12.845 20.038 22.788 2.081 6.585 13.776 57.204 26.65 93.693l-2.915-50.807c-0.931-16.234 5.474-28.724 17.574-34.264 9.716-4.448 25.261 0.783 31.519 14.451 4.417 9.647 6.812 28.759 9.845 52.958 2.945 23.495 6.286 50.129 12.148 71.805 1.297 4.808 2.986 10.302 4.832 16.32 14.524 47.382 41.572 135.59-40.622 173.22z" fill="#fff" filter="url(#filter3935)"/></g></svg>
